<svg xmlns="http://www.w3.org/2000/svg" width="1600" height="900" viewBox="0 0 1600 900">
  <defs>
    <linearGradient id="bg" x1="0" y1="0" x2="1" y2="1"><stop stop-color="#050914"/><stop offset="0.58" stop-color="#7C2D12"/><stop offset="1" stop-color="#02040a"/></linearGradient>
    <radialGradient id="glow" cx="50%" cy="38%" r="70%"><stop stop-color="#F59E0B" stop-opacity="0.40"/><stop offset="1" stop-color="#000" stop-opacity="0"/></radialGradient>
    <linearGradient id="glass" x1="0" y1="0" x2="0" y2="1"><stop stop-color="#ffffff" stop-opacity="0.15"/><stop offset="1" stop-color="#ffffff" stop-opacity="0.055"/></linearGradient>
    <pattern id="grid" width="64" height="64" patternUnits="userSpaceOnUse"><path d="M64 0H0V64" fill="none" stroke="#fff" stroke-opacity="0.035"/></pattern>
    <filter id="shadow"><feDropShadow dx="0" dy="18" stdDeviation="18" flood-color="#000" flood-opacity="0.55"/></filter>
  </defs>
  <rect width="1600" height="900" rx="34" fill="url(#bg)"/>
  <rect width="1600" height="900" rx="34" fill="url(#glow)"/>
  <rect width="1600" height="900" rx="34" fill="url(#grid)"/>
  <rect x="52" y="48" width="1496" height="804" rx="28" fill="none" stroke="#fff" stroke-opacity="0.17" stroke-width="2"/>
  <text x="92" y="110" font-family="Arial, Helvetica, sans-serif" font-size="29" fill="#FDE68A" font-weight="700" letter-spacing="5">SKQ-416</text>
  <text x="92" y="151" font-family="Arial, Helvetica, sans-serif" font-size="23" fill="#d6e3ef" fill-opacity="0.76" letter-spacing="3">CLASSIC JUMBO ROYALTY</text>
  <rect x="678" y="77" width="244" height="72" rx="19" fill="#050912" fill-opacity="0.64" stroke="#FDE68A" stroke-opacity="0.62"/>
  <text x="800" y="121" font-family="Arial, Helvetica, sans-serif" font-size="20" fill="#FDE68A" font-weight="700" text-anchor="middle" letter-spacing="2">MODERN FLEET</text>
  <g filter="url(#shadow)"><svg x="70" y="105" width="1460" height="515" viewBox="0 0 640 226" xmlns="http://www.w3.org/2000/svg" role="img" aria-label="B747-400"
    style="display:block">
    <defs><linearGradient id="fus_B747400" x1="0" y1="0" x2="0" y2="1">
      <stop offset="0%" stop-color="#f3f6f9"/><stop offset="70%" stop-color="#d7dee6"/>
      <stop offset="100%" stop-color="#b9c3cd"/></linearGradient></defs>
    <ellipse cx="320" cy="208" rx="213.3264" ry="7" fill="rgba(0,0,0,0.35)"/>
    <path d="M 299.6832,122.6 L 386.0296,122.6
      L 457.13840000000005,170.9 L 409.64788000000004,170.9 Z"
      fill="url(#fus_B747400)" stroke="#7c8a94" stroke-width="0.7"/>
<g><rect x="270.35082" y="153.88" width="53.3316" height="28.52" rx="11.883333333333333"
      fill="url(#fus_B747400)" stroke="#7c8a94" stroke-width="0.7"/>
    <rect x="277.817244" y="153.88" width="8.533056" height="28.52" fill="#F59E0B" opacity="0.9"/>
    <ellipse cx="271.85082" cy="168.14" rx="4.799844" ry="12.4" fill="#39424b"/></g>
<g><rect x="198.35316" y="150.45759999999999" width="46.931808000000004" height="25.668" rx="10.695"
      fill="url(#fus_B747400)" stroke="#7c8a94" stroke-width="0.7"/>
    <rect x="204.92361312" y="150.45759999999999" width="7.50908928" height="25.668" fill="#F59E0B" opacity="0.9"/>
    <ellipse cx="199.85316" cy="163.2916" rx="4.2238627200000005" ry="11.16" fill="#39424b"/></g>
<path d="M 495.23240000000004,98 L 538.4056,23.700000000000003
    L 573.96,23.700000000000003 L 574.96,99 Z"
    fill="#F59E0B" stroke="#d27b00" stroke-width="0.8"/>
<path d="M 513.0096000000001,97 L 552.11944,43.664
    L 562.2778400000001,43.664 L 523.168,97 Z"
    fill="rgba(255,255,255,0.55)"/>
<path d="M 518.0888,102 L 584.1184000000001,89
      L 591.7372,94 L 546.0244,107 Z"
      fill="#c9d1d9" stroke="#7c8a94" stroke-width="0.6"/>
<path d="M 66.03999999999999,118 Q 68.03999999999999,101.44 135.04,95
    L 497.77200000000005,95 Q 570.96,96 573.96,100
    L 573.96,105
    Q 528.2472,139 467.2968,141
    L 121.23999999999998,141
    Q 68.03999999999999,134.56 66.03999999999999,118 Z"
    fill="url(#fus_B747400)" stroke="#7c8a94" stroke-width="0.8"/>
<path d="M 116.63999999999999,96 Q 135.04,75.68 137.1488,74.76
      L 218.416,74.76 Q 269.20799999999997,75.68 299.6832,96 Z"
      fill="url(#fus_B747400)" stroke="#7c8a94" stroke-width="0.8"/>
<line x1="116.832" y1="87.64" x2="238.7328" y2="87.64"
    stroke="#3a4854" stroke-width="2.1" stroke-dasharray="2.1 3.6" stroke-linecap="round"/>
<path d="M 411.42560000000003,141 Q 472.37600000000003,127.2 495.23240000000004,101
      L 573.96,105 Q 528.2472,139 467.2968,141 Z"
      fill="#F59E0B" opacity="0.85"/>
<line x1="153.44" y1="111.56" x2="452.05920000000003" y2="111.56"
    stroke="#3a4854" stroke-width="2.1" stroke-dasharray="2.1 3.6" stroke-linecap="round"/>
<path d="M 116.63999999999999,102.36 l 23,0 l 6.44,7.36 l -25.76,0 Z"
    fill="#2b3540"/>
  </svg></g>
  <rect x="82" y="625" width="1436" height="188" rx="25" fill="url(#glass)" stroke="#fff" stroke-opacity="0.19"/>
  <rect x="82" y="625" width="9" height="188" rx="5" fill="#FDE68A"/>
  <text x="124" y="696" font-family="Arial, Helvetica, sans-serif" font-size="58" fill="#fff" font-weight="700" letter-spacing="1">SkyQueen 416</text>
  <text x="126" y="744" font-family="Arial, Helvetica, sans-serif" font-size="23" fill="#b9c9d8" letter-spacing="2">MODEL B747-400  •  JUMBO</text>
  <text x="126" y="784" font-family="Arial, Helvetica, sans-serif" font-size="24" fill="#e6eef5" fill-opacity="0.86">Iconic jumbo for mega-hubs and high-demand trunk routes.</text>
  <g transform="translate(1125 667)">
    <rect width="344" height="106" rx="18" fill="#02050b" fill-opacity="0.42" stroke="#fff" stroke-opacity="0.12"/>
    <text x="48" y="49" font-family="Arial, Helvetica, sans-serif" font-size="32" fill="#fff" font-weight="700" text-anchor="middle">416</text>
    <text x="48" y="77" font-family="Arial, Helvetica, sans-serif" font-size="15" fill="#aabccc" text-anchor="middle" letter-spacing="2">SEATS</text>
    <text x="172" y="49" font-family="Arial, Helvetica, sans-serif" font-size="32" fill="#fff" font-weight="700" text-anchor="middle">7,670</text>
    <text x="172" y="77" font-family="Arial, Helvetica, sans-serif" font-size="15" fill="#aabccc" text-anchor="middle" letter-spacing="2">MILES</text>
    <text x="296" y="49" font-family="Arial, Helvetica, sans-serif" font-size="32" fill="#fff" font-weight="700" text-anchor="middle">1989</text>
    <text x="296" y="77" font-family="Arial, Helvetica, sans-serif" font-size="15" fill="#aabccc" text-anchor="middle" letter-spacing="2">ERA</text>
  </g>
  </svg>