<svg xmlns="http://www.w3.org/2000/svg" width="1600" height="900" viewBox="0 0 1600 900">
  <defs>
    <linearGradient id="bg" x1="0" y1="0" x2="1" y2="1"><stop stop-color="#050914"/><stop offset="0.58" stop-color="#1E293B"/><stop offset="1" stop-color="#02040a"/></linearGradient>
    <radialGradient id="glow" cx="50%" cy="38%" r="70%"><stop stop-color="#EF4444" stop-opacity="0.40"/><stop offset="1" stop-color="#000" stop-opacity="0"/></radialGradient>
    <linearGradient id="glass" x1="0" y1="0" x2="0" y2="1"><stop stop-color="#ffffff" stop-opacity="0.15"/><stop offset="1" stop-color="#ffffff" stop-opacity="0.055"/></linearGradient>
    <pattern id="grid" width="64" height="64" patternUnits="userSpaceOnUse"><path d="M64 0H0V64" fill="none" stroke="#fff" stroke-opacity="0.035"/></pattern>
    <filter id="shadow"><feDropShadow dx="0" dy="18" stdDeviation="18" flood-color="#000" flood-opacity="0.55"/></filter>
  </defs>
  <rect width="1600" height="900" rx="34" fill="url(#bg)"/>
  <rect width="1600" height="900" rx="34" fill="url(#glow)"/>
  <rect width="1600" height="900" rx="34" fill="url(#grid)"/>
  <rect x="52" y="48" width="1496" height="804" rx="28" fill="none" stroke="#fff" stroke-opacity="0.17" stroke-width="2"/>
  <text x="92" y="110" font-family="Arial, Helvetica, sans-serif" font-size="29" fill="#FACC15" font-weight="700" letter-spacing="5">RKT-200</text>
  <text x="92" y="151" font-family="Arial, Helvetica, sans-serif" font-size="23" fill="#d6e3ef" fill-opacity="0.76" letter-spacing="3">HOT-ROD NARROWBODY</text>
  <rect x="678" y="77" width="244" height="72" rx="19" fill="#050912" fill-opacity="0.64" stroke="#FACC15" stroke-opacity="0.62"/>
  <text x="800" y="121" font-family="Arial, Helvetica, sans-serif" font-size="20" fill="#FACC15" font-weight="700" text-anchor="middle" letter-spacing="2">VINTAGE FLEET</text>
  <g filter="url(#shadow)"><svg x="70" y="105" width="1460" height="515" viewBox="0 0 640 226" xmlns="http://www.w3.org/2000/svg" role="img" aria-label="B757-200"
    style="display:block">
    <defs><linearGradient id="fus_B757200" x1="0" y1="0" x2="0" y2="1">
      <stop offset="0%" stop-color="#f3f6f9"/><stop offset="70%" stop-color="#d7dee6"/>
      <stop offset="100%" stop-color="#b9c3cd"/></linearGradient></defs>
    <ellipse cx="320" cy="208" rx="157.07999999999998" ry="7" fill="rgba(0,0,0,0.35)"/>
    <path d="M 305.04,121.2 L 368.62,121.2
      L 420.98,154.8 L 386.011,154.8 Z"
      fill="url(#fus_B757200)" stroke="#7c8a94" stroke-width="0.7"/>
<g><rect x="283.4415" y="142.96" width="39.269999999999996" height="19.84" rx="8.266666666666667"
      fill="url(#fus_B757200)" stroke="#7c8a94" stroke-width="0.7"/>
    <rect x="288.9393" y="142.96" width="6.2832" height="19.84" fill="#EF4444" opacity="0.9"/>
    <ellipse cx="284.9415" cy="152.88" rx="3.5342999999999996" ry="8.626086956521739" fill="#39424b"/></g>
<path d="M 449.03,105 L 480.82,46
    L 507,46 L 508,106 Z"
    fill="#EF4444" stroke="#cc2121" stroke-width="0.8"/>
<path d="M 462.11999999999995,104 L 490.918,61.68
    L 498.39799999999997,61.68 L 469.59999999999997,104 Z"
    fill="rgba(255,255,255,0.55)"/>
<path d="M 465.86,109 L 514.48,96
      L 520.09,101 L 486.43,114 Z"
      fill="#c9d1d9" stroke="#7c8a94" stroke-width="0.6"/>
<path d="M 133,118 Q 135,106.48 181,102
    L 450.9,102 Q 504,103 507,107
    L 507,112
    Q 473.34000000000003,132 428.46000000000004,134
    L 171.4,134
    Q 135,129.52 133,118 Z"
    fill="url(#fus_B757200)" stroke="#7c8a94" stroke-width="0.8"/>
<path d="M 149,118 L 469.6,118 L 462.12,123.12
      L 155.4,123.12 Z" fill="#EF4444" opacity="0.92"/>
<path d="M 155.4,124.4 L 458.38,124.4
      L 454.64,126.96000000000001 L 161.8,126.96000000000001 Z" fill="#cc2121" opacity="0.85"/>
<line x1="193.8" y1="113.52" x2="417.24" y2="113.52"
    stroke="#3a4854" stroke-width="2.1" stroke-dasharray="2.1 3.6" stroke-linecap="round"/>
<path d="M 168.2,107.12 l 16,0 l 4.48,5.12 l -17.92,0 Z"
    fill="#2b3540"/>
  </svg></g>
  <rect x="82" y="625" width="1436" height="188" rx="25" fill="url(#glass)" stroke="#fff" stroke-opacity="0.19"/>
  <rect x="82" y="625" width="9" height="188" rx="5" fill="#FACC15"/>
  <text x="124" y="696" font-family="Arial, Helvetica, sans-serif" font-size="58" fill="#fff" font-weight="700" letter-spacing="1">RocketRoute 200</text>
  <text x="126" y="744" font-family="Arial, Helvetica, sans-serif" font-size="23" fill="#b9c9d8" letter-spacing="2">MODEL B757-200  •  MEDIUM-HAUL</text>
  <text x="126" y="784" font-family="Arial, Helvetica, sans-serif" font-size="24" fill="#e6eef5" fill-opacity="0.86">Powerful narrowbody for long thin routes and performance-limited airports.</text>
  <g transform="translate(1125 667)">
    <rect width="344" height="106" rx="18" fill="#02050b" fill-opacity="0.42" stroke="#fff" stroke-opacity="0.12"/>
    <text x="48" y="49" font-family="Arial, Helvetica, sans-serif" font-size="32" fill="#fff" font-weight="700" text-anchor="middle">200</text>
    <text x="48" y="77" font-family="Arial, Helvetica, sans-serif" font-size="15" fill="#aabccc" text-anchor="middle" letter-spacing="2">SEATS</text>
    <text x="172" y="49" font-family="Arial, Helvetica, sans-serif" font-size="32" fill="#fff" font-weight="700" text-anchor="middle">4,488</text>
    <text x="172" y="77" font-family="Arial, Helvetica, sans-serif" font-size="15" fill="#aabccc" text-anchor="middle" letter-spacing="2">MILES</text>
    <text x="296" y="49" font-family="Arial, Helvetica, sans-serif" font-size="32" fill="#fff" font-weight="700" text-anchor="middle">1983</text>
    <text x="296" y="77" font-family="Arial, Helvetica, sans-serif" font-size="15" fill="#aabccc" text-anchor="middle" letter-spacing="2">ERA</text>
  </g>
  </svg>