<svg xmlns="http://www.w3.org/2000/svg" width="1600" height="900" viewBox="0 0 1600 900">
  <defs>
    <linearGradient id="bg" x1="0" y1="0" x2="1" y2="1"><stop stop-color="#050914"/><stop offset="0.58" stop-color="#0F766E"/><stop offset="1" stop-color="#02040a"/></linearGradient>
    <radialGradient id="glow" cx="50%" cy="38%" r="70%"><stop stop-color="#67E8F9" stop-opacity="0.40"/><stop offset="1" stop-color="#000" stop-opacity="0"/></radialGradient>
    <linearGradient id="glass" x1="0" y1="0" x2="0" y2="1"><stop stop-color="#ffffff" stop-opacity="0.15"/><stop offset="1" stop-color="#ffffff" stop-opacity="0.055"/></linearGradient>
    <pattern id="grid" width="64" height="64" patternUnits="userSpaceOnUse"><path d="M64 0H0V64" fill="none" stroke="#fff" stroke-opacity="0.035"/></pattern>
    <filter id="shadow"><feDropShadow dx="0" dy="18" stdDeviation="18" flood-color="#000" flood-opacity="0.55"/></filter>
  </defs>
  <rect width="1600" height="900" rx="34" fill="url(#bg)"/>
  <rect width="1600" height="900" rx="34" fill="url(#glow)"/>
  <rect width="1600" height="900" rx="34" fill="url(#grid)"/>
  <rect x="52" y="48" width="1496" height="804" rx="28" fill="none" stroke="#fff" stroke-opacity="0.17" stroke-width="2"/>
  <text x="92" y="110" font-family="Arial, Helvetica, sans-serif" font-size="29" fill="#FACC15" font-weight="700" letter-spacing="5">EUB-247</text>
  <text x="92" y="151" font-family="Arial, Helvetica, sans-serif" font-size="23" fill="#d6e3ef" fill-opacity="0.76" letter-spacing="3">EARLY TWIN-AISLE EFFICIENCY</text>
  <rect x="678" y="77" width="244" height="72" rx="19" fill="#050912" fill-opacity="0.64" stroke="#FACC15" stroke-opacity="0.62"/>
  <text x="800" y="121" font-family="Arial, Helvetica, sans-serif" font-size="20" fill="#FACC15" font-weight="700" text-anchor="middle" letter-spacing="2">VINTAGE FLEET</text>
  <g filter="url(#shadow)"><svg x="70" y="105" width="1460" height="515" viewBox="0 0 640 226" xmlns="http://www.w3.org/2000/svg" role="img" aria-label="A300B4"
    style="display:block">
    <defs><linearGradient id="fus_A300B4" x1="0" y1="0" x2="0" y2="1">
      <stop offset="0%" stop-color="#f3f6f9"/><stop offset="70%" stop-color="#d7dee6"/>
      <stop offset="100%" stop-color="#b9c3cd"/></linearGradient></defs>
    <ellipse cx="320" cy="208" rx="169.31879999999998" ry="7" fill="rgba(0,0,0,0.35)"/>
    <path d="M 303.87440000000004,121.8 L 372.4082,121.8
      L 428.8478,161.7 L 391.15421000000003,161.7 Z"
      fill="url(#fus_A300B4)" stroke="#7c8a94" stroke-width="0.7"/>
<g><rect x="280.593065" y="147.64" width="42.329699999999995" height="23.56" rx="9.816666666666666"
      fill="url(#fus_A300B4)" stroke="#7c8a94" stroke-width="0.7"/>
    <rect x="286.519223" y="147.64" width="6.772752" height="23.56" fill="#67E8F9" opacity="0.9"/>
    <ellipse cx="282.093065" cy="159.42" rx="3.8096729999999996" ry="10.243478260869566" fill="#39424b"/></g>
<path d="M 459.08329999999995,102 L 493.3501999999999,32.5
    L 521.5699999999999,32.5 L 522.5699999999999,103 Z"
    fill="#67E8F9" stroke="#44c5d6" stroke-width="0.8"/>
<path d="M 473.19319999999993,101 L 504.23497999999995,51.120000000000005
    L 512.29778,51.120000000000005 L 481.256,101 Z"
    fill="rgba(255,255,255,0.55)"/>
<path d="M 477.22459999999995,106 L 529.6328,93
      L 535.6799,98 L 499.3972999999999,111 Z"
      fill="#c9d1d9" stroke="#7c8a94" stroke-width="0.6"/>
<path d="M 118.43,118 Q 120.43,104.32 175.43,99
    L 461.09899999999993,99 Q 518.5699999999999,100 521.5699999999999,104
    L 521.5699999999999,109
    Q 485.28739999999993,135 436.91059999999993,137
    L 164.03,137
    Q 120.43,131.68 118.43,118 Z"
    fill="url(#fus_A300B4)" stroke="#7c8a94" stroke-width="0.8"/>
<path d="M 137.43,118 L 481.2559999999999,118 L 473.19319999999993,124.08
      L 145.03,124.08 Z" fill="#67E8F9" opacity="0.92"/>
<path d="M 145.03,125.6 L 469.1617999999999,125.6
      L 465.13039999999995,128.64 L 152.63,128.64 Z" fill="#44c5d6" opacity="0.85"/>
<line x1="190.63" y1="112.68" x2="424.81639999999993" y2="112.68"
    stroke="#3a4854" stroke-width="2.1" stroke-dasharray="2.1 3.6" stroke-linecap="round"/>
<path d="M 160.23000000000002,105.08 l 19,0 l 5.32,6.08 l -21.28,0 Z"
    fill="#2b3540"/>
  </svg></g>
  <rect x="82" y="625" width="1436" height="188" rx="25" fill="url(#glass)" stroke="#fff" stroke-opacity="0.19"/>
  <rect x="82" y="625" width="9" height="188" rx="5" fill="#FACC15"/>
  <text x="124" y="696" font-family="Arial, Helvetica, sans-serif" font-size="58" fill="#fff" font-weight="700" letter-spacing="1">EuroBridge 247</text>
  <text x="126" y="744" font-family="Arial, Helvetica, sans-serif" font-size="23" fill="#b9c9d8" letter-spacing="2">MODEL A300B4  •  LONG-HAUL</text>
  <text x="126" y="784" font-family="Arial, Helvetica, sans-serif" font-size="24" fill="#e6eef5" fill-opacity="0.86">Early widebody twin for efficient regional trunk expansion.</text>
  <g transform="translate(1125 667)">
    <rect width="344" height="106" rx="18" fill="#02050b" fill-opacity="0.42" stroke="#fff" stroke-opacity="0.12"/>
    <text x="48" y="49" font-family="Arial, Helvetica, sans-serif" font-size="32" fill="#fff" font-weight="700" text-anchor="middle">247</text>
    <text x="48" y="77" font-family="Arial, Helvetica, sans-serif" font-size="15" fill="#aabccc" text-anchor="middle" letter-spacing="2">SEATS</text>
    <text x="172" y="49" font-family="Arial, Helvetica, sans-serif" font-size="32" fill="#fff" font-weight="700" text-anchor="middle">3,300</text>
    <text x="172" y="77" font-family="Arial, Helvetica, sans-serif" font-size="15" fill="#aabccc" text-anchor="middle" letter-spacing="2">MILES</text>
    <text x="296" y="49" font-family="Arial, Helvetica, sans-serif" font-size="32" fill="#fff" font-weight="700" text-anchor="middle">1974</text>
    <text x="296" y="77" font-family="Arial, Helvetica, sans-serif" font-size="15" fill="#aabccc" text-anchor="middle" letter-spacing="2">ERA</text>
  </g>
  </svg>