<svg xmlns="http://www.w3.org/2000/svg" width="1600" height="900" viewBox="0 0 1600 900">
  <defs>
    <linearGradient id="bg" x1="0" y1="0" x2="1" y2="1"><stop stop-color="#050914"/><stop offset="0.58" stop-color="#1E293B"/><stop offset="1" stop-color="#02040a"/></linearGradient>
    <radialGradient id="glow" cx="50%" cy="38%" r="70%"><stop stop-color="#0284C7" stop-opacity="0.40"/><stop offset="1" stop-color="#000" stop-opacity="0"/></radialGradient>
    <linearGradient id="glass" x1="0" y1="0" x2="0" y2="1"><stop stop-color="#ffffff" stop-opacity="0.15"/><stop offset="1" stop-color="#ffffff" stop-opacity="0.055"/></linearGradient>
    <pattern id="grid" width="64" height="64" patternUnits="userSpaceOnUse"><path d="M64 0H0V64" fill="none" stroke="#fff" stroke-opacity="0.035"/></pattern>
    <filter id="shadow"><feDropShadow dx="0" dy="18" stdDeviation="18" flood-color="#000" flood-opacity="0.55"/></filter>
  </defs>
  <rect width="1600" height="900" rx="34" fill="url(#bg)"/>
  <rect width="1600" height="900" rx="34" fill="url(#glow)"/>
  <rect width="1600" height="900" rx="34" fill="url(#grid)"/>
  <rect x="52" y="48" width="1496" height="804" rx="28" fill="none" stroke="#fff" stroke-opacity="0.17" stroke-width="2"/>
  <text x="92" y="110" font-family="Arial, Helvetica, sans-serif" font-size="29" fill="#F97316" font-weight="700" letter-spacing="5">TOC-270</text>
  <text x="92" y="151" font-family="Arial, Helvetica, sans-serif" font-size="23" fill="#d6e3ef" fill-opacity="0.76" letter-spacing="3">TRI-JET OCEAN CROSSER</text>
  <rect x="678" y="77" width="244" height="72" rx="19" fill="#050912" fill-opacity="0.64" stroke="#F97316" stroke-opacity="0.62"/>
  <text x="800" y="121" font-family="Arial, Helvetica, sans-serif" font-size="20" fill="#F97316" font-weight="700" text-anchor="middle" letter-spacing="2">VINTAGE FLEET</text>
  <g filter="url(#shadow)"><svg x="70" y="105" width="1460" height="515" viewBox="0 0 640 226" xmlns="http://www.w3.org/2000/svg" role="img" aria-label="DC-10-30"
    style="display:block">
    <defs><linearGradient id="fus_DC1030" x1="0" y1="0" x2="0" y2="1">
      <stop offset="0%" stop-color="#f3f6f9"/><stop offset="70%" stop-color="#d7dee6"/>
      <stop offset="100%" stop-color="#b9c3cd"/></linearGradient></defs>
    <ellipse cx="320" cy="208" rx="175.308" ry="7" fill="rgba(0,0,0,0.35)"/>
    <path d="M 303.304,121.8 L 374.26199999999994,121.8
      L 432.6979999999999,161.7 L 393.67109999999997,161.7 Z"
      fill="url(#fus_DC1030)" stroke="#7c8a94" stroke-width="0.7"/>
<g><rect x="279.19915" y="147.64" width="43.827" height="23.56" rx="9.816666666666666"
      fill="url(#fus_DC1030)" stroke="#7c8a94" stroke-width="0.7"/>
    <rect x="285.33493" y="147.64" width="7.01232" height="23.56" fill="#0284C7" opacity="0.9"/>
    <ellipse cx="280.69915" cy="159.42" rx="3.9444299999999997" ry="10.243478260869566" fill="#39424b"/></g>
<g><rect x="472.35100000000006" y="72.4" width="46.01835" height="21.204" rx="8.835"
      fill="url(#fus_DC1030)" stroke="#7c8a94" stroke-width="0.7"/>
    <rect x="478.79356900000005" y="72.4" width="7.3629359999999995" height="21.204" fill="#0284C7" opacity="0.9"/>
    <ellipse cx="473.85100000000006" cy="83.00200000000001" rx="4.1416515" ry="9.21913043478261" fill="#39424b"/></g>
<path d="M 464.00300000000004,102 L 499.4820000000001,32.5
    L 528.7,32.5 L 529.7,103 Z"
    fill="#0284C7" stroke="#0061a4" stroke-width="0.8"/>
<path d="M 478.612,101 L 510.75180000000006,51.120000000000005
    L 519.0998000000001,51.120000000000005 L 486.96000000000004,101 Z"
    fill="rgba(255,255,255,0.55)"/>
<path d="M 482.78600000000006,106 L 537.048,93
      L 543.3090000000001,98 L 505.74300000000005,111 Z"
      fill="#c9d1d9" stroke="#7c8a94" stroke-width="0.6"/>
<path d="M 111.30000000000001,118 Q 113.30000000000001,104.32 168.3,99
    L 466.09000000000003,99 Q 525.7,100 528.7,104
    L 528.7,109
    Q 491.13400000000007,135 441.04600000000005,137
    L 156.9,137
    Q 113.30000000000001,131.68 111.30000000000001,118 Z"
    fill="url(#fus_DC1030)" stroke="#7c8a94" stroke-width="0.8"/>
<path d="M 130.3,118 L 486.96000000000004,118 L 478.6120000000001,124.08
      L 137.9,124.08 Z" fill="#0284C7" opacity="0.92"/>
<path d="M 137.9,125.6 L 474.43800000000005,125.6
      L 470.26400000000007,128.64 L 145.5,128.64 Z" fill="#0061a4" opacity="0.85"/>
<line x1="183.5" y1="112.68" x2="428.52400000000006" y2="112.68"
    stroke="#3a4854" stroke-width="2.1" stroke-dasharray="2.1 3.6" stroke-linecap="round"/>
<path d="M 153.10000000000002,105.08 l 19,0 l 5.32,6.08 l -21.28,0 Z"
    fill="#2b3540"/>
  </svg></g>
  <rect x="82" y="625" width="1436" height="188" rx="25" fill="url(#glass)" stroke="#fff" stroke-opacity="0.19"/>
  <rect x="82" y="625" width="9" height="188" rx="5" fill="#F97316"/>
  <text x="124" y="696" font-family="Arial, Helvetica, sans-serif" font-size="58" fill="#fff" font-weight="700" letter-spacing="1">TriOcean 270</text>
  <text x="126" y="744" font-family="Arial, Helvetica, sans-serif" font-size="23" fill="#b9c9d8" letter-spacing="2">MODEL DC-10-30  •  LONG-HAUL</text>
  <text x="126" y="784" font-family="Arial, Helvetica, sans-serif" font-size="24" fill="#e6eef5" fill-opacity="0.86">Vintage widebody for ocean routes before modern twins dominate.</text>
  <g transform="translate(1125 667)">
    <rect width="344" height="106" rx="18" fill="#02050b" fill-opacity="0.42" stroke="#fff" stroke-opacity="0.12"/>
    <text x="48" y="49" font-family="Arial, Helvetica, sans-serif" font-size="32" fill="#fff" font-weight="700" text-anchor="middle">270</text>
    <text x="48" y="77" font-family="Arial, Helvetica, sans-serif" font-size="15" fill="#aabccc" text-anchor="middle" letter-spacing="2">SEATS</text>
    <text x="172" y="49" font-family="Arial, Helvetica, sans-serif" font-size="32" fill="#fff" font-weight="700" text-anchor="middle">5,790</text>
    <text x="172" y="77" font-family="Arial, Helvetica, sans-serif" font-size="15" fill="#aabccc" text-anchor="middle" letter-spacing="2">MILES</text>
    <text x="296" y="49" font-family="Arial, Helvetica, sans-serif" font-size="32" fill="#fff" font-weight="700" text-anchor="middle">1972</text>
    <text x="296" y="77" font-family="Arial, Helvetica, sans-serif" font-size="15" fill="#aabccc" text-anchor="middle" letter-spacing="2">ERA</text>
  </g>
  </svg>